<?xml version="1.0" encoding="UTF-8" standalone="no"?>
<!DOCTYPE svg PUBLIC "-//W3C//DTD SVG 1.0//EN" "http://www.w3.org/TR/2001/REC-SVG-20010904/DTD/svg10.dtd">
<svg xmlns="http://www.w3.org/2000/svg" version="1.0" viewBox="0.00 0.00 440.00 167.00">
<path fill="#000000" d="
  M 0.00 29.53
  L 0.00 18.06
  L 9.16 17.96
  A 0.84 0.83 -85.6 0 1 9.99 18.93
  L 9.24 23.73
  A 1.75 1.74 8.8 0 0 10.71 25.73
  Q 16.60 26.63 25.79 26.05
  Q 27.83 25.92 28.50 25.13
  A 2.34 2.24 -19.7 0 0 28.92 24.29
  L 34.32 2.90
  A 2.43 2.41 7.0 0 1 36.67 1.08
  L 46.87 1.08
  A 0.65 0.64 -85.1 0 1 47.50 1.84
  Q 46.87 5.38 45.75 9.63
  Q 45.08 12.19 43.59 17.29
  Q 42.12 22.29 41.43 24.88
  A 1.02 1.02 0.0 0 0 42.50 26.16
  Q 43.26 26.10 44.76 25.97
  Q 47.56 25.72 48.92 25.63
  Q 51.17 25.47 52.87 25.46
  Q 73.07 25.37 91.50 24.81
  Q 92.61 24.78 94.97 24.58
  Q 98.45 24.29 100.17 24.32
  Q 102.01 24.35 105.30 24.46
  Q 109.49 24.59 111.63 24.59
  Q 115.14 24.60 118.61 24.39
  Q 121.08 24.24 143.34 23.40
  Q 149.01 23.19 154.17 23.33
  Q 156.00 23.38 158.21 23.31
  Q 159.54 23.27 162.14 23.13
  Q 166.47 22.90 168.62 22.92
  Q 181.16 23.02 192.75 22.53
  Q 209.86 21.81 245.60 21.20
  A 0.48 0.48 0.0 0 1 246.05 21.85
  L 242.66 30.63
  A 1.46 1.45 9.2 0 1 241.36 31.56
  Q 211.22 32.73 175.76 32.92
  Q 174.39 32.92 171.78 33.26
  Q 170.38 33.43 169.68 33.50
  Q 168.52 33.60 167.57 33.58
  Q 163.84 33.50 159.42 33.58
  Q 156.76 33.64 151.54 33.82
  Q 144.27 34.07 140.47 34.09
  Q 115.78 34.25 91.24 35.09
  Q 78.14 35.54 65.00 36.11
  Q 62.84 36.20 60.02 36.18
  Q 58.33 36.17 54.93 36.10
  Q 49.46 35.97 46.90 36.03
  Q 42.65 36.12 39.83 36.66
  A 2.21 2.19 -86.0 0 0 38.16 38.13
  Q 35.86 45.10 34.55 49.28
  Q 32.66 55.29 31.31 60.13
  Q 28.05 71.88 26.79 81.25
  Q 26.79 81.27 26.78 81.31
  Q 26.40 84.15 26.28 85.79
  Q 26.06 88.66 26.30 90.79
  Q 26.94 96.62 30.95 97.77
  A 2.01 1.95 44.0 0 0 32.02 97.77
  Q 36.29 96.56 39.55 92.14
  Q 41.95 88.90 43.93 83.66
  Q 48.98 70.37 50.71 55.49
  Q 50.94 53.55 51.58 51.28
  A 1.80 1.78 7.6 0 1 53.31 49.97
  L 61.59 49.97
  A 1.11 1.10 -83.7 0 1 62.66 51.32
  Q 62.10 53.78 62.65 54.98
  A 1.02 1.01 81.7 0 0 63.42 55.56
  Q 70.59 56.68 77.09 56.34
  Q 78.31 56.27 79.93 56.03
  Q 80.89 55.88 82.82 55.52
  Q 85.59 55.02 86.84 54.88
  A 0.86 0.86 0.0 0 1 87.76 56.00
  Q 83.73 68.67 81.21 79.69
  Q 79.51 87.14 79.63 94.49
  Q 79.67 96.90 81.34 98.08
  Q 83.05 99.29 85.52 98.00
  Q 87.57 96.93 90.04 94.19
  Q 91.98 92.05 93.97 89.14
  Q 95.45 86.98 96.36 85.32
  Q 97.99 82.34 98.81 76.95
  Q 100.20 67.71 103.75 55.52
  A 0.88 0.88 0.0 0 1 104.60 54.88
  L 115.95 54.88
  A 0.65 0.65 0.0 0 1 116.58 55.70
  Q 116.50 56.00 116.34 56.59
  Q 114.85 62.07 114.15 64.79
  Q 112.99 69.32 112.25 72.96
  Q 110.40 82.00 110.33 89.50
  Q 110.28 93.60 111.36 95.88
  Q 112.78 98.91 116.21 98.95
  Q 118.10 98.98 120.31 96.80
  Q 123.48 93.68 125.58 88.52
  Q 126.43 86.44 127.25 83.69
  Q 127.76 81.97 128.64 78.63
  Q 132.50 63.91 133.95 55.48
  A 0.73 0.72 4.6 0 1 134.67 54.88
  L 146.10 54.88
  A 0.79 0.79 0.0 0 1 146.88 55.79
  Q 146.52 58.17 145.78 61.55
  Q 145.32 63.59 144.28 67.94
  Q 143.04 73.09 142.48 75.69
  Q 141.53 80.05 141.06 83.37
  Q 141.03 83.61 140.93 84.23
  Q 140.58 86.58 140.43 88.07
  Q 140.15 90.71 140.18 92.69
  Q 140.29 98.23 142.85 98.66
  Q 144.47 98.93 146.52 97.68
  Q 148.27 96.60 150.23 94.48
  Q 151.88 92.70 153.46 90.43
  Q 154.80 88.50 155.65 86.89
  Q 162.90 73.17 166.71 52.47
  A 1.23 1.23 0.0 0 1 168.28 51.52
  Q 174.24 53.37 179.11 50.23
  A 0.89 0.89 0.0 0 1 180.36 50.53
  Q 181.24 52.02 189.21 65.54
  Q 193.41 72.65 195.31 79.18
  Q 196.50 83.26 196.74 86.90
  Q 197.05 91.53 195.67 94.20
  Q 194.64 96.20 194.38 97.61
  A 0.52 0.51 76.2 0 0 195.20 98.11
  Q 200.51 93.99 204.03 89.01
  A 7.91 7.69 -17.6 0 0 204.91 87.37
  Q 208.97 77.19 210.73 65.82
  A 1.14 1.13 -85.6 0 0 209.61 64.51
  L 205.70 64.51
  A 0.91 0.90 7.0 0 1 204.82 63.39
  L 206.72 55.88
  A 1.29 1.29 0.0 0 1 207.97 54.91
  L 211.75 54.91
  A 1.37 1.36 7.0 0 0 213.08 53.88
  L 216.34 40.97
  A 1.48 1.47 7.0 0 1 217.77 39.86
  L 226.92 39.86
  A 1.72 1.72 0.0 0 1 228.59 42.00
  L 225.60 53.82
  A 0.86 0.85 7.1 0 0 226.43 54.88
  L 232.95 54.88
  A 0.67 0.67 0.0 0 1 233.57 55.79
  L 230.45 63.87
  A 1.13 1.13 0.0 0 1 229.18 64.57
  Q 227.18 64.16 224.97 64.43
  A 2.22 2.22 0.0 0 0 223.09 66.11
  Q 220.09 78.77 220.43 92.02
  Q 220.46 93.44 220.86 94.78
  Q 221.58 97.17 223.07 98.08
  Q 224.38 98.88 226.22 98.52
  Q 227.79 98.21 229.60 97.08
  Q 231.16 96.11 232.54 94.77
  Q 235.32 92.07 238.26 87.25
  Q 240.18 84.12 241.38 78.43
  Q 245.11 60.77 247.84 48.53
  Q 250.33 37.41 254.01 27.49
  Q 256.88 19.75 261.75 15.51
  Q 267.24 10.73 274.71 10.96
  Q 283.74 11.24 286.94 16.80
  Q 289.62 21.45 288.16 29.67
  Q 287.02 36.10 283.40 44.44
  Q 281.02 49.92 277.68 55.95
  Q 268.96 71.70 258.08 85.60
  Q 257.51 86.34 256.67 87.19
  Q 256.18 87.71 255.14 88.70
  Q 253.89 89.91 253.32 90.53
  Q 252.37 91.55 251.80 92.43
  A 1.77 1.77 0.0 0 0 252.55 94.99
  Q 254.41 95.84 256.51 95.57
  Q 259.18 95.22 262.27 94.44
  Q 265.90 93.51 268.99 92.25
  Q 272.64 90.77 275.08 88.99
  Q 277.90 86.93 278.94 84.60
  Q 279.35 83.68 279.54 82.27
  Q 279.66 81.43 279.76 79.69
  Q 279.87 77.81 280.01 77.01
  Q 280.58 73.77 284.33 57.86
  Q 285.17 54.35 288.73 54.57
  Q 293.24 54.85 297.24 54.89
  A 0.68 0.67 7.9 0 1 297.89 55.74
  Q 294.19 69.82 292.17 78.94
  Q 290.73 85.47 291.67 92.16
  Q 292.24 96.17 294.05 97.58
  Q 296.55 99.52 299.11 98.56
  Q 301.27 97.75 303.39 94.89
  Q 305.10 92.57 306.64 89.13
  Q 307.84 86.44 308.61 83.83
  Q 312.13 71.96 314.39 57.71
  Q 314.87 54.67 317.99 54.61
  Q 319.31 54.58 327.67 54.91
  A 0.57 0.57 0.0 0 1 328.20 55.62
  Q 328.15 55.82 328.02 56.29
  Q 324.33 70.32 322.71 79.59
  Q 321.33 87.45 321.36 92.12
  Q 321.39 97.75 323.47 98.54
  Q 325.83 99.44 329.89 95.73
  Q 332.48 93.37 335.45 89.43
  Q 337.07 87.27 337.62 84.54
  Q 337.83 83.48 337.90 82.19
  Q 337.95 81.43 337.96 79.99
  Q 337.98 78.28 338.06 77.52
  Q 338.62 72.32 340.59 67.88
  Q 342.56 63.42 345.74 60.17
  Q 349.02 56.83 353.28 55.08
  Q 357.73 53.24 362.93 53.28
  Q 366.66 53.30 370.00 54.77
  Q 373.22 56.18 375.68 58.75
  Q 378.11 61.29 379.46 64.59
  Q 380.83 67.98 380.86 71.68
  Q 380.90 77.21 378.17 81.44
  Q 375.70 85.27 371.22 87.70
  Q 367.09 89.93 361.91 90.64
  Q 356.95 91.33 352.17 90.48
  A 0.62 0.61 84.7 0 0 351.49 91.30
  Q 353.56 96.94 359.53 98.67
  Q 363.22 99.73 367.12 99.65
  Q 371.01 99.56 374.60 98.34
  Q 378.29 97.08 381.23 94.77
  Q 384.32 92.33 386.26 88.97
  A 2.50 2.45 54.1 0 0 386.53 87.17
  Q 384.39 77.58 384.81 68.00
  Q 385.14 60.69 386.53 52.68
  Q 388.26 42.78 391.18 34.82
  Q 394.70 25.21 399.62 19.46
  Q 405.37 12.76 412.75 11.66
  Q 417.79 10.92 421.58 13.21
  Q 424.91 15.23 427.05 19.45
  Q 428.94 23.16 429.65 28.03
  Q 430.30 32.44 429.85 36.61
  Q 429.22 42.37 427.09 48.60
  Q 425.24 54.00 422.67 59.26
  Q 420.00 64.71 416.74 69.63
  Q 413.31 74.79 409.41 79.08
  Q 405.29 83.61 400.81 86.98
  A 1.07 1.06 63.8 0 0 400.42 88.14
  Q 401.51 91.89 403.50 94.24
  Q 405.41 96.52 407.99 97.28
  Q 410.54 98.03 413.46 97.21
  Q 416.43 96.37 419.47 94.00
  Q 423.58 90.79 426.60 85.54
  Q 429.05 81.28 431.24 74.76
  Q 431.81 73.07 433.64 72.43
  A 1.09 0.92 -50.0 0 1 433.98 72.37
  L 438.58 72.37
  A 0.62 0.62 0.0 0 1 439.20 72.95
  Q 439.43 76.36 439.20 78.56
  Q 438.88 81.52 437.66 84.11
  Q 432.39 95.35 428.25 100.42
  Q 425.69 103.55 422.64 105.80
  Q 419.50 108.12 416.09 109.29
  Q 412.52 110.53 408.88 110.42
  Q 405.04 110.31 401.32 108.70
  Q 394.88 105.92 391.71 99.84
  A 0.85 0.85 0.0 0 0 390.35 99.64
  L 385.84 104.23
  A 4.32 3.97 2.4 0 1 385.20 104.77
  Q 372.57 113.34 357.17 109.28
  Q 347.51 106.73 341.73 98.35
  A 0.73 0.72 48.3 0 0 340.59 98.28
  Q 336.49 102.92 334.67 104.88
  Q 332.79 106.89 330.41 108.24
  Q 328.00 109.60 325.42 110.08
  Q 322.73 110.59 320.21 110.08
  Q 317.52 109.53 315.28 107.87
  Q 311.74 105.24 311.28 100.45
  A 0.73 0.73 0.0 0 0 309.90 100.18
  Q 306.60 106.67 300.08 109.28
  Q 296.93 110.54 293.68 110.45
  Q 290.51 110.37 287.77 109.04
  Q 285.00 107.68 283.17 105.26
  Q 281.24 102.72 280.67 99.37
  A 0.82 0.82 0.0 0 0 279.38 98.84
  Q 268.25 106.92 254.51 109.25
  Q 250.49 109.93 246.81 108.64
  A 0.46 0.46 0.0 0 0 246.20 109.00
  Q 243.94 122.40 240.02 136.49
  Q 236.88 147.74 232.38 155.18
  Q 229.32 160.24 225.81 163.15
  Q 221.74 166.53 217.15 166.92
  A 1.05 1.04 4.2 0 1 216.04 165.64
  L 218.04 157.01
  A 1.79 1.72 -15.8 0 1 218.58 156.09
  Q 218.74 155.94 221.44 154.19
  Q 224.65 152.10 227.15 146.10
  Q 228.10 143.84 229.03 140.83
  Q 229.57 139.07 230.45 135.83
  Q 230.61 135.23 230.69 134.94
  Q 234.62 120.49 237.08 105.59
  A 0.42 0.42 0.0 0 0 236.42 105.18
  Q 234.13 106.82 232.59 107.81
  Q 229.16 110.00 225.44 110.42
  Q 221.88 110.82 218.61 109.54
  Q 215.35 108.26 212.98 105.55
  Q 210.52 102.73 209.45 98.83
  A 0.75 0.74 57.2 0 0 208.16 98.55
  Q 199.33 109.13 185.51 110.26
  Q 182.69 110.49 180.89 110.56
  Q 178.31 110.66 176.20 110.53
  Q 170.97 110.20 167.15 108.33
  Q 161.77 105.71 157.38 101.85
  A 0.63 0.62 -50.8 0 0 156.47 101.95
  Q 154.46 104.61 151.76 106.62
  Q 148.92 108.73 145.89 109.68
  Q 142.60 110.71 139.56 110.22
  Q 136.21 109.69 133.46 107.35
  Q 130.34 104.70 129.92 100.58
  A 0.75 0.75 0.0 0 0 128.51 100.32
  Q 126.50 104.33 123.03 106.99
  Q 119.65 109.59 115.69 110.29
  Q 111.61 111.02 107.90 109.53
  Q 103.91 107.94 101.10 104.03
  Q 100.68 103.44 100.35 102.62
  Q 100.16 102.13 99.88 101.17
  Q 99.56 100.09 99.35 99.65
  A 0.81 0.81 0.0 0 0 98.00 99.47
  Q 97.84 99.65 92.37 105.61
  Q 90.62 107.51 88.27 108.72
  Q 85.92 109.93 83.34 110.27
  Q 80.68 110.62 78.15 110.00
  Q 75.47 109.34 73.26 107.66
  Q 65.84 102.03 67.10 89.52
  Q 67.56 84.86 69.28 78.94
  Q 70.27 75.52 72.40 69.50
  Q 72.54 69.13 72.60 68.95
  A 0.88 0.87 14.2 0 0 71.91 67.80
  L 61.57 66.17
  A 1.26 1.26 0.0 0 0 60.12 67.43
  Q 60.15 69.62 59.54 72.28
  Q 56.86 83.81 51.30 94.01
  Q 49.22 97.82 46.28 101.15
  Q 43.07 104.78 39.46 107.09
  Q 35.44 109.66 31.39 110.26
  Q 26.88 110.93 22.65 109.08
  Q 17.86 106.99 15.72 101.15
  Q 14.06 96.62 14.05 90.00
  Q 14.04 79.59 16.11 69.82
  Q 19.66 53.03 25.22 37.07
  A 0.37 0.36 7.9 0 0 24.85 36.59
  Q 17.16 37.11 9.38 36.37
  Q 3.51 35.82 0.00 29.53
  Z
  M 253.61 76.91
  Q 254.19 76.76 254.72 76.22
  Q 258.94 71.97 262.29 66.07
  Q 271.61 49.64 275.81 32.79
  Q 276.89 28.46 276.47 25.33
  Q 276.31 24.11 275.72 23.22
  Q 275.15 22.36 274.28 21.97
  Q 273.40 21.57 272.40 21.72
  Q 271.34 21.87 270.32 22.60
  Q 266.44 25.37 263.79 32.29
  Q 260.91 39.82 258.88 48.23
  Q 258.02 51.82 257.06 56.56
  Q 256.47 59.47 255.23 65.92
  Q 253.94 72.67 253.18 76.51
  A 0.35 0.34 -1.7 0 0 253.61 76.91
  Z
  M 397.66 75.58
  A 0.63 0.62 65.1 0 0 398.75 75.98
  Q 411.96 61.33 416.77 42.27
  Q 417.30 40.14 417.63 37.54
  Q 418.04 34.20 417.87 31.51
  Q 417.67 28.18 416.57 26.30
  Q 415.28 24.07 412.79 24.02
  A 2.10 2.09 31.6 0 0 411.72 24.27
  Q 408.64 25.96 406.44 29.68
  Q 404.83 32.37 403.34 36.88
  Q 397.08 55.76 397.66 75.58
  Z
  M 174.72 63.34
  Q 174.46 63.68 174.33 64.30
  Q 172.25 73.80 168.67 83.92
  Q 166.98 88.67 164.32 93.36
  A 1.29 1.28 -51.2 0 0 164.47 94.84
  Q 168.81 99.82 175.83 99.82
  Q 181.53 99.81 183.80 94.23
  Q 184.86 91.63 184.32 86.87
  Q 183.93 83.47 182.84 79.59
  Q 182.11 76.97 180.41 73.33
  Q 179.41 71.19 177.28 67.12
  Q 175.92 64.52 175.38 63.41
  A 0.39 0.39 0.0 0 0 174.72 63.34
  Z
  M 351.72 81.94
  Q 353.77 82.10 356.12 81.81
  Q 358.64 81.49 360.90 80.71
  Q 363.39 79.85 365.18 78.55
  Q 367.18 77.09 368.11 75.21
  Q 369.34 72.75 369.12 70.19
  Q 368.91 67.75 367.49 66.03
  Q 366.03 64.26 363.82 63.92
  Q 361.40 63.54 358.70 65.04
  Q 354.70 67.26 352.53 71.49
  Q 350.58 75.30 350.30 80.31
  A 1.56 1.55 4.0 0 0 351.72 81.94
  Z"
/>
</svg>
