<?xml version="1.0" encoding="UTF-8"?>
<svg width="171" height="177" viewBox="0 0 171 177" fill="none" xmlns="http://www.w3.org/2000/svg">
  <!-- Primeiro SVG -->
  <g transform="translate(16.51, -3.21)">
    <path
      fill-rule="evenodd"
      clip-rule="evenodd"
      d="M115.195 37.2842C121.934 55.0694 128.91 61.3919 119.266 89.6494C111.66 111.858 84.0479 154.172 64.8491 169.935C39.5961 190.729 -1.18709 159.747 1.00203 109.779C2.25705 81.5019 40.869 4.73937 90.6507 1.01523C113.502 -0.697429 104.23 4.29798 112.244 12.8651C114.461 15.2245 115.759 16.0403 116.58 18.1723L117.474 23.6119C117.474 23.6119 117.621 24.257 117.696 24.5094C119.719 31.8854 121.639 29.115 115.141 37.256"
      fill="#FFF0D1"
    />
  </g>
  
  <!-- Segundo SVG -->
  <g transform="translate(19.51, 36.50)">
    <path
      d="M73.8048 41.1742L73.6554 41.1825C73.6554 41.1825 73.65 41.1825 73.65 41.1797C71.1857 32.7689 70.4521 24.4806 71.452 16.3148C72.0307 11.5902 72.9653 6.6094 74.2504 1.36692C74.3971 0.776683 74.9351 0.375771 75.5274 0.417533L75.6035 0.420316C76.1387 0.45651 76.5191 0.966003 76.4158 1.50612C75.4404 6.57042 74.84 9.63851 74.6145 10.7104C72.479 20.7972 72.2154 30.9425 73.8266 41.1463C73.8293 41.1602 73.8184 41.1714 73.8048 41.1742Z"
      fill="#2C2D74"
    />
    <path
      d="M35.2976 53.5356C35.2759 53.6442 35.1373 53.6693 35.0802 53.5774C32.8849 50.0193 30.869 46.116 28.6003 41.937C26.0709 37.2764 22.748 32.6325 19.5964 28.9046C14.877 23.328 12.19 20.1123 11.5352 19.2604C11.1114 18.7119 10.731 18.0911 11.1901 17.3951C11.9672 16.2229 13.8392 18.1412 14.3336 18.7593C16.7327 21.7494 19.341 24.9845 22.1584 28.4647C25.4324 32.51 28.1873 36.8115 30.418 41.3663C31.8063 44.2005 33.0534 47.0291 34.1592 49.8522C34.6618 51.1357 35.0368 52.2661 35.2813 53.2377C35.3085 53.3491 35.3139 53.4493 35.2976 53.5356Z"
      fill="#2C2D74"
    />
    <path
      d="M165.377 31.0873C165.379 31.1012 165.379 31.1124 165.382 31.1207C165.385 31.1235 165.374 31.1346 165.36 31.1486C163.896 32.6102 162.413 33.9076 160.907 35.0435C158.326 36.9924 155.422 37.4796 152.265 37.914C148.067 38.4931 144.098 38.5404 139.626 38.0086C135.433 37.5075 131.127 37.1372 126.622 37.0871C126.296 37.0843 125.353 36.959 123.794 36.7168C123.014 36.5943 122.085 36.3827 121.006 36.082C119.107 35.553 117.463 35.1855 116.075 34.9767C114.067 34.676 111.576 34.5424 110.609 36.8142C108.845 40.9514 107.362 44.117 106.158 46.3136C103.384 51.3668 101.58 54.6966 99.3169 59.772C98.3035 62.0439 97.6868 64.3547 97.4613 66.7073C97.2874 68.5086 97.2195 71.134 97.3988 73.4754C97.6161 76.3124 97.8552 77.8103 97.6053 80.1127C97.2847 83.0667 96.9777 85.1937 97.3689 87.6076C97.6542 89.3783 100.368 87.8164 101.075 87.2122C101.143 87.1538 101.203 87.0842 101.254 87.009C102.398 85.2995 103.121 83.8379 103.422 82.6268C103.843 80.9257 104.148 78.6956 104.33 75.9338C104.381 75.1125 104.229 74.5946 103.89 73.9153C103.786 73.7065 103.773 73.4643 103.849 73.2443C104.036 72.707 105.05 69.9702 106.886 65.0396C107.465 63.4777 108.943 62.1357 109.473 61.1223C110.516 59.1372 111.508 57.2079 112.448 55.3397C112.733 54.7745 113.44 53.8808 114.562 52.6586C115.149 52.0183 115.782 52.1992 116.309 52.7087C116.385 52.7811 116.393 52.9008 116.333 52.9871C114.475 55.6571 112.801 58.5108 111.31 61.5511C111.247 61.6791 111.22 61.7794 111.228 61.849C111.247 61.9854 111.386 62.0689 111.511 62.0188C113.537 61.1975 115.502 60.0087 117.404 58.4579C119.333 56.8849 120.686 55.8102 121.46 55.2395C121.658 55.0919 121.794 54.9694 121.87 54.8692C122.028 54.6632 121.946 54.3597 121.71 54.2623C120.001 53.5467 118.471 52.8312 117.116 52.1157C116.841 51.9709 116.703 51.6508 116.787 51.3501C117.116 50.1585 120.129 51.4392 121.161 51.8206C123.066 52.5194 124.78 53.6414 126.304 55.181C127.562 56.4561 128.807 58.6472 128.04 60.4235C127.929 60.6796 127.663 60.83 127.391 60.7882C126.706 60.6824 126.492 60.1423 126.12 59.4546C126.087 59.3962 126.008 59.3906 125.97 59.4435C124.919 60.9302 124.063 62.3779 123.408 63.7867C123.237 64.157 123.02 64.5022 122.761 64.8168C119.808 68.3833 116.523 71.9414 112.902 75.4911C111.953 76.4238 110.829 77.7546 109.533 79.4863C107.356 82.3957 105.501 86.1598 106.02 89.8655C106.066 90.1912 106.297 90.4585 106.607 90.5476C108.326 91.032 110.304 89.9212 111.456 88.6266C111.981 88.0391 112.997 86.8921 114.51 85.1798C115.317 84.2694 116.287 83.4815 117.159 82.7827C117.765 82.2955 119.808 80.6779 123.289 77.93C125.215 76.4071 126.63 75.4187 127.535 74.9621C130.581 73.4225 134.757 72.3868 137.167 71.6156C138.935 71.0477 140.745 70.1902 142.595 69.0431C143.522 68.4668 144.934 67.2557 146.839 65.4071C147.95 64.3296 149.303 63.0378 150.898 61.5344C152.403 60.1145 154.987 59.2709 156.957 58.8338C160.177 58.1238 164.681 57.1717 170.466 55.9828C170.49 55.9773 170.509 56.0079 170.495 56.0302C170.433 56.1304 170.346 56.2139 170.229 56.278C168.849 57.0492 167.368 57.6895 165.79 58.2046C163.323 59.0092 160.875 59.8221 158.446 60.6379C155.813 61.5232 153.539 62.3334 151.539 64.2377C149.461 66.22 147.334 68.1995 145.421 69.8087C142.883 71.9442 139.965 73.4643 136.667 74.3691C133.262 75.3018 130.532 75.9895 127.818 77.4289C126.91 77.9105 125.628 78.8376 123.971 80.2102C121.892 81.9336 119.403 83.9103 116.507 86.1459C116.176 86.4021 115.306 87.3236 113.902 88.9133C112.671 90.3026 111.777 91.1907 111.223 91.5749C109.791 92.5661 108.114 93.0839 106.199 93.1285C106.074 93.1313 105.971 93.2343 105.965 93.3623L105.906 94.4676C105.9 94.5762 105.971 94.6737 106.074 94.6987C107.65 95.069 109.231 95.6982 110.258 96.9594C110.731 97.5413 111.214 98.3264 111.706 99.3176C113.247 102.419 114.654 105.103 115.931 107.372C116.14 107.745 116.398 108.026 116.7 108.218C117.713 108.864 119.767 111.17 118.735 112.648C117.219 114.817 114.744 115.268 112.369 115.83C111.554 116.022 111.212 116.448 110.894 117.225C108.894 122.069 107.938 124.706 106.044 127.98C104.379 130.856 101.613 131.908 98.4774 131.842C90.8292 131.68 84.9606 131.7 76.4756 132.073C72.2969 132.256 68.1971 132.371 64.1787 132.412C62.4969 132.432 61.1276 132.318 59.2882 132.326C57.9841 132.334 55.8241 132.245 52.8083 132.062C46.7468 131.691 41.6851 131.051 34.814 130.422C33.2843 130.282 29.3312 130.196 22.9545 130.163C22.2372 130.157 21.3624 130.043 20.7701 129.99C17.1484 129.662 15.5128 127.217 14.1815 124.116C12.7578 120.8 11.8259 118.472 11.3885 117.13C11.057 116.114 10.4973 115.613 9.46217 115.36C7.79668 114.95 5.98991 114.769 4.32714 115.064C3.46587 115.215 2.7486 115.376 2.00415 114.892C-0.139515 113.494 0.0289353 110.819 2.37638 109.769C2.46875 109.727 2.50679 109.613 2.45245 109.524C1.80038 108.433 2.23238 107.667 2.94693 106.762C5.40848 103.641 7.75049 100.598 9.97295 97.636C11.5732 95.5061 13.1219 94.2644 15.4231 93.6547C18.2922 92.8946 21.5471 92.5327 24.9949 92.0928C26.5844 91.8895 27.9021 91.7921 28.9427 91.7977C30.0648 91.806 34.3222 91.7364 41.7204 91.5944C44.6547 91.536 47.0837 91.5499 49.01 91.6362C55.2617 91.9146 62.918 91.8979 68.1862 91.7782C71.2156 91.7086 74.1119 90.4697 77.307 89.2725C79.6952 88.376 81.5536 87.1593 83.6782 85.9065C84.784 85.2578 85.9251 84.4727 87.1043 83.5511C89.3621 81.7944 90.6961 80.7392 91.1118 80.3884C92.4866 79.2358 93.644 78.601 95.2497 77.4372C95.4589 77.2869 95.5649 77.028 95.5295 76.769C94.997 72.9854 94.9454 69.1211 95.3719 65.1704C95.4643 64.3213 95.6545 63.4805 95.9425 62.648C97.0184 59.5409 98.5399 56.0831 100.51 52.2716C103.373 46.7285 106.017 42.6275 108.027 37.165C108.997 34.5313 110.951 32.4209 113.828 32.4989C115.431 32.5406 116.689 32.6381 118.279 33.0084C119.27 33.2394 120.352 33.49 121.523 33.7656C124.234 34.4032 126.848 34.6398 129.532 34.7122C133.787 34.8236 136.346 35.1911 141.612 35.8593C143.212 36.0625 145.089 36.185 147.241 36.224C153.506 36.3354 159.723 33.7684 165.287 31.0344C165.328 31.0149 165.374 31.0428 165.377 31.0873Z"
      fill="#2C2D74"
    />
  </g>
</svg> 