<svg width="97" height="97" viewBox="0 0 97 97" fill="none" xmlns="http://www.w3.org/2000/svg">
<rect width="97" height="97" rx="48.5" fill="#E8C273"/>
<path d="M71.372 76.6385C77.4473 71.6902 81.9295 64.7748 83.8043 56.7068H13.2007C15.0755 64.7748 19.5577 71.6953 25.633 76.6385C31.9184 81.7559 39.9146 84.768 48.5051 84.768C57.0955 84.768 65.0866 81.7559 71.3771 76.6385M85.3257 56.1587C83.5072 64.8977 78.7535 72.392 72.2326 77.6989C65.7065 83.011 57.408 86.1408 48.4999 86.1408C39.5919 86.1408 31.2934 83.0161 24.7673 77.6989C18.2464 72.392 13.4927 64.8977 11.6742 56.1587L11.5 55.334C36.1649 55.334 60.8298 55.334 85.4948 55.334L85.3206 56.1587H85.3257Z" fill="#363880"/>
<path d="M73.5189 56.3021C71.8131 61.7781 68.4271 66.3781 64.032 69.6156C59.6369 72.8479 54.2378 74.7176 48.5057 74.7176C45.0377 74.7176 41.6313 74.0261 38.4809 72.7198C35.3306 71.4136 32.4312 69.4977 29.9775 67.0441L30.9508 66.0708C33.2816 68.4015 36.0221 70.22 39.0034 71.4546C41.9847 72.6891 45.2119 73.3448 48.5057 73.3448C53.9407 73.3448 59.0581 71.5775 63.2227 68.5142C67.3873 65.451 70.594 61.0866 72.2076 55.8975L73.5189 56.3073V56.3021Z" fill="#363880"/>
<path d="M22.5598 31.6722C23.1181 32.1127 23.6919 32.3125 24.2758 32.2664C24.8649 32.2254 25.3567 31.9488 25.7614 31.4315C26.166 30.9192 26.3197 30.366 26.2224 29.7718C26.1251 29.1776 25.8023 28.6653 25.2542 28.235C24.6959 27.7945 24.117 27.5998 23.5177 27.6459C22.9184 27.692 22.4163 27.9789 22.0065 28.5014C21.6019 29.0136 21.4584 29.5617 21.566 30.1457C21.6787 30.7297 22.0065 31.2368 22.5547 31.6671M27.9384 27.1951C28.1741 27.3795 28.3995 27.4564 28.6146 27.4205C28.8297 27.3847 29.0141 27.2771 29.1627 27.0876C29.2754 26.9441 29.3574 26.7444 29.4086 26.4933L31.1451 27.2054C31.1195 27.8713 30.8992 28.4655 30.4894 28.988C30.1565 29.4132 29.7518 29.6949 29.2703 29.8435C28.7888 29.992 28.3021 29.9511 27.8104 29.7257C28.046 30.2789 28.1126 30.8526 28.0101 31.4468C27.9077 32.041 27.6311 32.625 27.1854 33.1936C26.6732 33.8442 26.0687 34.2898 25.3618 34.5408C24.6549 34.7867 23.9275 34.8328 23.1745 34.6689C22.4215 34.505 21.7043 34.1618 21.0282 33.629C20.352 33.0963 19.8449 32.4867 19.5068 31.8003C19.1687 31.1087 19.0304 30.3967 19.1021 29.6591C19.1738 28.9214 19.4709 28.2196 19.9934 27.5486C20.4032 27.0261 20.854 26.6522 21.3457 26.4268C21.8375 26.2014 22.319 26.1348 22.7954 26.2321L21.8631 25.4996L23.3487 23.6094L27.9282 27.2105L27.9384 27.1951ZM24.6293 36.9023L23.8558 39.1818L22.6673 38.7772C22.9849 39.1972 23.1898 39.6326 23.2872 40.0834C23.3845 40.5342 23.3333 41.0515 23.1335 41.6355C22.8415 42.491 22.3446 43.1108 21.6428 43.4899C20.9411 43.8689 20.0651 43.8843 19.0252 43.5308L13.6671 41.7175L14.4611 39.3714L19.348 41.0259C19.8449 41.195 20.2598 41.2052 20.5876 41.0567C20.9155 40.9081 21.1511 40.6264 21.2894 40.2166C21.4584 39.7197 21.4226 39.2587 21.1818 38.8437C20.9411 38.4288 20.5261 38.1215 19.9422 37.9268L15.4651 36.4105L16.2591 34.0644L24.6293 36.8972V36.9023ZM16.1976 46.1433C15.9261 46.4097 15.7212 46.7324 15.5829 47.1012C15.4395 47.4701 15.3678 47.8286 15.3575 48.1718C15.3473 48.4946 15.3985 48.7456 15.5112 48.9249C15.6239 49.1041 15.7827 49.1963 16.003 49.2015C16.2232 49.2066 16.3769 49.1093 16.4742 48.9044C16.5716 48.6995 16.6894 48.2845 16.8328 47.6596C16.9865 46.9885 17.1402 46.4456 17.2938 46.0306C17.4475 45.6157 17.6985 45.252 18.052 44.9395C18.4054 44.6271 18.8869 44.4785 19.5068 44.4939C20.101 44.5093 20.6235 44.6834 21.0743 45.0164C21.525 45.3493 21.8631 45.8001 22.0988 46.3738C22.3293 46.9476 22.4368 47.5879 22.4215 48.2999C22.401 49.0683 22.2422 49.8008 21.9348 50.4975C21.6326 51.1941 21.2126 51.7935 20.6849 52.2955L18.9843 50.9483C19.3941 50.5897 19.7117 50.1389 19.9371 49.5959C20.1624 49.0529 20.2803 48.5304 20.2956 48.0387C20.3059 47.7057 20.2598 47.4496 20.1624 47.26C20.0651 47.0756 19.9166 46.9783 19.7219 46.9732C19.517 46.9681 19.3531 47.0654 19.2404 47.26C19.1277 47.4598 19.0099 47.8184 18.8972 48.3409C18.7538 49.0017 18.6001 49.5549 18.4362 50.0057C18.2722 50.4565 17.9956 50.8407 17.6166 51.1736C17.2375 51.5015 16.7201 51.6603 16.0644 51.6398C15.4446 51.6244 14.9272 51.4554 14.5021 51.1378C14.082 50.8202 13.7695 50.395 13.5646 49.8776C13.3597 49.3551 13.2675 48.7866 13.2829 48.1667C13.2983 47.5264 13.4212 46.9117 13.6568 46.3277C13.8874 45.7438 14.2152 45.2418 14.6404 44.832L16.2079 46.1433H16.1976Z" fill="#363880"/>
<path d="M67.1518 23.8553C66.6601 24.3675 66.4091 24.9207 66.3937 25.5098C66.3783 26.0989 66.6089 26.6163 67.0801 27.0671C67.5514 27.5179 68.0893 27.7227 68.6886 27.6869C69.2879 27.6459 69.8258 27.3744 70.3124 26.8724C70.8042 26.3602 71.0552 25.8018 71.0654 25.2025C71.0757 24.6031 70.84 24.0755 70.3585 23.6145C69.8873 23.1637 69.3545 22.9639 68.7654 23.0203C68.1763 23.0766 67.6385 23.3532 67.157 23.8604M71.0962 29.6335C70.8913 29.8486 70.7939 30.0637 70.8093 30.284C70.8247 30.5043 70.9169 30.6938 71.091 30.8629C71.2242 30.9909 71.4138 31.0882 71.6597 31.1651L70.7888 32.8299C70.128 32.7377 69.5594 32.4662 69.0779 32.0052C68.6886 31.6312 68.4427 31.2009 68.3403 30.7092C68.2378 30.2174 68.3249 29.7359 68.5964 29.2698C68.0227 29.4542 67.4489 29.4644 66.865 29.3056C66.281 29.1468 65.7278 28.8139 65.2053 28.317C64.6059 27.7484 64.2218 27.0978 64.0425 26.3755C63.8632 25.6481 63.8888 24.9207 64.1244 24.1831C64.3601 23.4506 64.7699 22.7693 65.3641 22.1495C65.9583 21.5296 66.614 21.0788 67.3311 20.8074C68.0483 20.5359 68.7757 20.4693 69.5031 20.6076C70.2305 20.751 70.9015 21.1096 71.5162 21.6987C71.9977 22.1597 72.3256 22.6412 72.5049 23.1535C72.6842 23.6657 72.6995 24.1524 72.5561 24.6185L73.3757 23.7579L75.1174 25.4176L71.0962 29.6335ZM63.2485 19.6445C63.105 19.2911 62.895 18.9786 62.6082 18.702C62.3213 18.4305 62.0242 18.2205 61.7117 18.0771C61.4197 17.9439 61.1687 17.8926 60.9587 17.9234C60.7487 17.9541 60.6001 18.0719 60.5079 18.2666C60.4157 18.4664 60.4465 18.6508 60.6001 18.8147C60.7487 18.9837 61.0868 19.2552 61.6093 19.6292C62.1676 20.0339 62.6082 20.3873 62.9309 20.6895C63.2536 20.9918 63.4892 21.3657 63.6378 21.8114C63.7863 22.257 63.7351 22.759 63.479 23.3276C63.2331 23.8706 62.8694 24.2855 62.3879 24.5724C61.9064 24.8593 61.3583 24.9976 60.7384 24.9873C60.1186 24.9771 59.4886 24.8285 58.838 24.5365C58.1362 24.219 57.5266 23.7887 57.0041 23.2354C56.4816 22.6822 56.0872 22.0675 55.8311 21.3862L57.7366 20.3412C57.9057 20.8586 58.1977 21.3247 58.6126 21.7448C59.0275 22.1648 59.4578 22.4773 59.9086 22.6771C60.2108 22.8154 60.467 22.8717 60.677 22.8564C60.887 22.8359 61.0304 22.7385 61.1124 22.5644C61.1995 22.3748 61.1687 22.1904 61.0355 22.0111C60.8972 21.8319 60.6104 21.5809 60.1698 21.2735C59.6166 20.8842 59.1658 20.5256 58.8175 20.1978C58.4692 19.8699 58.2182 19.4653 58.0645 18.9889C57.9108 18.5125 57.9672 17.9746 58.2387 17.3804C58.4948 16.8169 58.8482 16.402 59.3093 16.1407C59.7703 15.8744 60.2774 15.7514 60.8358 15.7668C61.3941 15.7822 61.9576 15.9153 62.5211 16.1715C63.1051 16.4378 63.6224 16.7913 64.0681 17.2318C64.5137 17.6724 64.8467 18.1693 65.067 18.7225L63.2485 19.6548V19.6445ZM53.8128 17.196C53.864 16.694 53.7769 16.2842 53.5464 15.9666C53.3159 15.649 52.9266 15.4543 52.3836 15.3826C51.8611 15.316 51.4206 15.398 51.0671 15.6336C50.7137 15.8641 50.4524 16.2381 50.2834 16.7452L53.8128 17.196ZM50.0939 18.5073C50.2219 19.5984 50.8673 20.2183 52.0404 20.3668C52.9625 20.4846 53.7616 20.2439 54.4378 19.6497L55.4879 21.3401C54.3302 22.2673 53.0291 22.6412 51.5845 22.4568C50.6983 22.3441 49.9402 22.0624 49.3101 21.6116C48.68 21.1608 48.2241 20.582 47.9373 19.8699C47.6504 19.1579 47.5685 18.3537 47.6812 17.4572C47.7938 16.571 48.0807 15.7975 48.5366 15.1419C48.9976 14.4862 49.597 13.9995 50.3346 13.687C51.0723 13.3746 51.8919 13.2773 52.7883 13.3951C54.0177 13.5487 54.9295 14.0507 55.5237 14.896C56.1231 15.7412 56.328 16.8886 56.1435 18.3434L56.0257 19.2655L50.0939 18.5125V18.5073ZM33.8708 16.3456L34.2397 17.4367C34.4394 16.4122 35.0541 15.7258 36.0838 15.3775C37.2773 14.9728 38.2557 15.1982 39.019 16.0537C39.1009 15.4799 39.3212 14.9933 39.6695 14.5937C40.0179 14.1942 40.484 13.892 41.0731 13.6922C41.9542 13.3951 42.7174 13.4361 43.3782 13.8202C44.0339 14.2044 44.5359 14.9165 44.8894 15.9563L46.7079 21.3299L44.3618 22.1238L42.6713 17.1243C42.5125 16.6581 42.2974 16.3252 42.0259 16.1254C41.7544 15.9256 41.4009 15.9 40.9655 16.0485C40.5199 16.1971 40.2228 16.4635 40.0742 16.8476C39.9257 17.2318 39.9564 17.7338 40.1664 18.3485L41.7442 23.0049L39.398 23.7989L37.7076 18.7993C37.5488 18.3332 37.3337 18.0002 37.0622 17.8004C36.7907 17.6007 36.4372 17.575 36.0018 17.7236C35.5561 17.8721 35.259 18.1436 35.1105 18.5227C34.9619 18.9069 34.9927 19.4089 35.2027 20.0236L36.7804 24.68L34.4343 25.474L31.6016 17.1038L33.8811 16.3303L33.8708 16.3456Z" fill="#363880"/>
<path d="M80.2348 33.4501L80.619 33.2964C81.5974 32.9123 82.4836 32.8918 83.2725 33.2503C84.0613 33.6038 84.6351 34.239 84.9937 35.1559C85.3113 35.9653 85.383 36.8259 85.1986 37.7377L83.1239 37.5789C83.2213 37.1332 83.1905 36.7132 83.0368 36.3187C82.9088 35.9909 82.7141 35.7553 82.4529 35.6169C82.1967 35.4786 81.8945 35.4786 81.5564 35.6118L81.1569 35.7706L81.9406 37.753L79.8762 38.5675L79.0925 36.5851L72.9352 39.0132L72.0234 36.6927L78.1807 34.2646L77.5865 32.7637L79.6509 31.9492L80.2451 33.4501H80.2348Z" fill="#363880"/>
<path d="M82.8934 40.5149L83.3288 42.9532L74.6307 44.5053L74.1953 42.067L82.8934 40.5149ZM87.1041 41.022C87.186 41.4728 87.1041 41.8724 86.8633 42.2258C86.6225 42.5793 86.2896 42.7893 85.8593 42.8661C85.429 42.943 85.0448 42.8559 84.6965 42.61C84.3481 42.3641 84.1381 42.0158 84.0562 41.565C83.9742 41.104 84.0562 40.6942 84.2918 40.3459C84.5326 39.9924 84.8655 39.7824 85.2958 39.7055C85.7364 39.6287 86.1257 39.7107 86.4689 39.9566C86.8121 40.2024 87.0221 40.561 87.1041 41.022Z" fill="#363880"/>
<path d="M83.6406 46.8759L85.8074 46.9322L85.7459 49.4218L83.5791 49.3654L83.5176 51.8908L81.2996 51.8345L81.3611 49.3091L78.2312 49.2322C77.7855 49.222 77.4423 49.3347 77.2016 49.5652C76.9608 49.8008 76.8327 50.1184 76.8225 50.518C76.8122 50.9432 76.9352 51.3735 77.1862 51.8191L75.3318 52.3723C74.835 51.5323 74.5993 50.6768 74.6249 49.7906C74.6505 48.8532 74.9477 48.1002 75.5163 47.5367C76.0849 46.9732 76.8635 46.7017 77.847 46.7273L81.4225 46.8195L81.4686 45.083L83.6867 45.1394L83.6406 46.8759Z" fill="#363880"/>
<path d="M44.1254 64.8465C40.4321 63.8578 37.2971 61.6859 35.0893 58.807C32.8815 55.9282 31.5957 52.3424 31.5957 48.5159C31.5957 43.8493 33.4859 39.6181 36.5492 36.5599C39.6073 33.5018 43.8385 31.6064 48.5051 31.6064C51.5223 31.6064 54.4268 32.4107 56.9573 33.8757C59.4827 35.3356 61.6342 37.4512 63.1453 40.0637L61.9569 40.745C60.5687 38.3426 58.5965 36.4011 56.2709 35.059C53.9504 33.722 51.2815 32.9793 48.5051 32.9793C44.2176 32.9793 40.3296 34.7158 37.5225 37.5281C34.7102 40.3403 32.9737 44.2232 32.9737 48.5108C32.9737 52.0299 34.1519 55.3237 36.1855 57.9669C38.214 60.6101 41.0929 62.6028 44.4891 63.5146L44.1356 64.8413L44.1254 64.8465Z" fill="#363880"/>
</svg>
