<svg xmlns="http://www.w3.org/2000/svg" width="97" height="98" viewBox="0 0 97 98" fill="none">
<rect y="0.719727" width="97" height="97" rx="48.5" fill="#E8C273"/>
<path d="M71.372 77.3583C77.4473 72.4099 81.9295 65.4945 83.8043 57.4265H13.2007C15.0755 65.4945 19.5577 72.415 25.633 77.3583C31.9184 82.4757 39.9146 85.4877 48.5051 85.4877C57.0955 85.4877 65.0866 82.4757 71.3771 77.3583M85.3257 56.8784C83.5072 65.6175 78.7535 73.1117 72.2326 78.4186C65.7065 83.7307 57.408 86.8605 48.4999 86.8605C39.5919 86.8605 31.2934 83.7358 24.7673 78.4186C18.2464 73.1117 13.4927 65.6175 11.6742 56.8784L11.5 56.0537C36.1649 56.0537 60.8298 56.0537 85.4948 56.0537L85.3206 56.8784H85.3257Z" fill="#363880"/>
<path d="M73.5189 57.0219C71.8131 62.4978 68.4271 67.0978 64.032 70.3353C59.6369 73.5676 54.2378 75.4373 48.5057 75.4373C45.0377 75.4373 41.6313 74.7458 38.4809 73.4395C35.3306 72.1333 32.4312 70.2175 29.9775 67.7638L30.9508 66.7905C33.2816 69.1213 36.0221 70.9398 39.0034 72.1743C41.9847 73.4088 45.2119 74.0645 48.5057 74.0645C53.9407 74.0645 59.0581 72.2972 63.2227 69.2339C67.3873 66.1707 70.594 61.8063 72.2076 56.6172L73.5189 57.027V57.0219Z" fill="#363880"/>
<path d="M22.5598 32.3919C23.1181 32.8325 23.6919 33.0323 24.2758 32.9862C24.8649 32.9452 25.3567 32.6686 25.7614 32.1512C26.166 31.6389 26.3197 31.0857 26.2224 30.4915C26.1251 29.8973 25.8023 29.385 25.2542 28.9547C24.6959 28.5142 24.117 28.3195 23.5177 28.3656C22.9184 28.4117 22.4163 28.6986 22.0065 29.2211C21.6019 29.7334 21.4584 30.2815 21.566 30.8654C21.6787 31.4494 22.0065 31.9565 22.5547 32.3868M27.9384 27.9149C28.1741 28.0993 28.3995 28.1761 28.6146 28.1403C28.8297 28.1044 29.0141 27.9968 29.1627 27.8073C29.2754 27.6639 29.3574 27.4641 29.4086 27.2131L31.1451 27.9251C31.1195 28.591 30.8992 29.1852 30.4894 29.7077C30.1565 30.1329 29.7518 30.4147 29.2703 30.5632C28.7888 30.7118 28.3021 30.6708 27.8104 30.4454C28.046 30.9986 28.1126 31.5723 28.0101 32.1666C27.9077 32.7608 27.6311 33.3447 27.1854 33.9133C26.6732 34.5639 26.0687 35.0095 25.3618 35.2606C24.6549 35.5064 23.9275 35.5525 23.1745 35.3886C22.4215 35.2247 21.7043 34.8815 21.0282 34.3487C20.352 33.816 19.8449 33.2064 19.5068 32.52C19.1687 31.8285 19.0304 31.1164 19.1021 30.3788C19.1738 29.6412 19.4709 28.9394 19.9934 28.2683C20.4032 27.7458 20.854 27.3719 21.3457 27.1465C21.8375 26.9211 22.319 26.8545 22.7954 26.9518L21.8631 26.2193L23.3487 24.3291L27.9282 27.9302L27.9384 27.9149ZM24.6293 37.622L23.8558 39.9016L22.6673 39.4969C22.9849 39.9169 23.1898 40.3523 23.2872 40.8031C23.3845 41.2539 23.3333 41.7713 23.1335 42.3552C22.8415 43.2107 22.3446 43.8305 21.6428 44.2096C20.9411 44.5887 20.0651 44.604 19.0252 44.2506L13.6671 42.4372L14.4611 40.0911L19.348 41.7457C19.8449 41.9147 20.2598 41.9249 20.5876 41.7764C20.9155 41.6278 21.1511 41.3461 21.2894 40.9363C21.4584 40.4394 21.4226 39.9784 21.1818 39.5635C20.9411 39.1485 20.5261 38.8412 19.9422 38.6465L15.4651 37.1303L16.2591 34.7842L24.6293 37.6169V37.622ZM16.1976 46.8631C15.9261 47.1294 15.7212 47.4521 15.5829 47.821C15.4395 48.1898 15.3678 48.5484 15.3575 48.8916C15.3473 49.2143 15.3985 49.4653 15.5112 49.6446C15.6239 49.8239 15.7827 49.9161 16.003 49.9212C16.2232 49.9263 16.3769 49.829 16.4742 49.6241C16.5716 49.4192 16.6894 49.0043 16.8328 48.3793C16.9865 47.7083 17.1402 47.1653 17.2938 46.7504C17.4475 46.3354 17.6985 45.9717 18.052 45.6593C18.4054 45.3468 18.8869 45.1982 19.5068 45.2136C20.101 45.229 20.6235 45.4031 21.0743 45.7361C21.525 46.0691 21.8631 46.5198 22.0988 47.0936C22.3293 47.6673 22.4368 48.3076 22.4215 49.0196C22.401 49.788 22.2422 50.5205 21.9348 51.2172C21.6326 51.9139 21.2126 52.5132 20.6849 53.0152L18.9843 51.668C19.3941 51.3094 19.7117 50.8586 19.9371 50.3156C20.1624 49.7726 20.2803 49.2502 20.2956 48.7584C20.3059 48.4254 20.2598 48.1693 20.1624 47.9798C20.0651 47.7954 19.9166 47.698 19.7219 47.6929C19.517 47.6878 19.3531 47.7851 19.2404 47.9798C19.1277 48.1795 19.0099 48.5381 18.8972 49.0606C18.7538 49.7214 18.6001 50.2747 18.4362 50.7254C18.2722 51.1762 17.9956 51.5604 17.6166 51.8934C17.2375 52.2212 16.7201 52.38 16.0644 52.3595C15.4446 52.3442 14.9272 52.1751 14.5021 51.8575C14.082 51.5399 13.7695 51.1147 13.5646 50.5974C13.3597 50.0749 13.2675 49.5063 13.2829 48.8865C13.2983 48.2461 13.4212 47.6314 13.6568 47.0475C13.8874 46.4635 14.2152 45.9615 14.6404 45.5517L16.2079 46.8631H16.1976Z" fill="#363880"/>
<path d="M67.1518 24.575C66.6601 25.0872 66.4091 25.6405 66.3937 26.2295C66.3783 26.8186 66.6089 27.336 67.0801 27.7868C67.5514 28.2376 68.0892 28.4425 68.6886 28.4066C69.2879 28.3656 69.8258 28.0941 70.3124 27.5921C70.8042 27.0799 71.0552 26.5215 71.0654 25.9222C71.0757 25.3229 70.84 24.7952 70.3585 24.3342C69.8873 23.8834 69.3545 23.6837 68.7654 23.74C68.1763 23.7964 67.6385 24.073 67.157 24.5801M71.0962 30.3532C70.8913 30.5683 70.7939 30.7835 70.8093 31.0037C70.8247 31.224 70.9169 31.4135 71.091 31.5826C71.2242 31.7106 71.4138 31.808 71.6597 31.8848L70.7888 33.5496C70.128 33.4574 69.5594 33.1859 69.0779 32.7249C68.6886 32.351 68.4427 31.9207 68.3403 31.4289C68.2378 30.9371 68.3249 30.4556 68.5964 29.9895C68.0227 30.1739 67.4489 30.1841 66.865 30.0253C66.281 29.8665 65.7278 29.5336 65.2053 29.0367C64.6059 28.4681 64.2218 27.8175 64.0425 27.0953C63.8632 26.3679 63.8888 25.6405 64.1244 24.9028C64.3601 24.1703 64.7699 23.489 65.3641 22.8692C65.9583 22.2494 66.614 21.7986 67.3311 21.5271C68.0483 21.2556 68.7757 21.189 69.5031 21.3273C70.2305 21.4707 70.9015 21.8293 71.5162 22.4184C71.9977 22.8794 72.3256 23.3609 72.5049 23.8732C72.6842 24.3854 72.6995 24.8721 72.5561 25.3382L73.3757 24.4776L75.1174 26.1373L71.0962 30.3532ZM63.2485 20.3643C63.105 20.0108 62.895 19.6983 62.6082 19.4217C62.3213 19.1502 62.0242 18.9402 61.7117 18.7968C61.4197 18.6636 61.1687 18.6124 60.9587 18.6431C60.7487 18.6738 60.6001 18.7917 60.5079 18.9863C60.4157 19.1861 60.4465 19.3705 60.6001 19.5344C60.7487 19.7035 61.0868 19.975 61.6093 20.3489C62.1676 20.7536 62.6082 21.107 62.9309 21.4093C63.2536 21.7115 63.4892 22.0854 63.6378 22.5311C63.7863 22.9767 63.7351 23.4788 63.479 24.0474C63.2331 24.5903 62.8694 25.0053 62.3879 25.2921C61.9064 25.579 61.3583 25.7173 60.7384 25.7071C60.1186 25.6968 59.4886 25.5483 58.838 25.2563C58.1362 24.9387 57.5266 24.5084 57.0041 23.9552C56.4816 23.4019 56.0872 22.7872 55.8311 22.1059L57.7366 21.0609C57.9057 21.5783 58.1977 22.0445 58.6126 22.4645C59.0275 22.8845 59.4578 23.197 59.9086 23.3968C60.2108 23.5351 60.467 23.5915 60.677 23.5761C60.887 23.5556 61.0304 23.4583 61.1124 23.2841C61.1995 23.0946 61.1687 22.9102 61.0355 22.7309C60.8972 22.5516 60.6104 22.3006 60.1698 21.9932C59.6166 21.6039 59.1658 21.2453 58.8175 20.9175C58.4692 20.5897 58.2182 20.185 58.0645 19.7086C57.9108 19.2322 57.9672 18.6943 58.2387 18.1001C58.4948 17.5366 58.8482 17.1217 59.3093 16.8605C59.7703 16.5941 60.2774 16.4712 60.8358 16.4865C61.3941 16.5019 61.9576 16.6351 62.5211 16.8912C63.1051 17.1576 63.6224 17.511 64.0681 17.9516C64.5137 18.3921 64.8467 18.889 65.067 19.4422L63.2485 20.3745V20.3643ZM53.8128 17.9157C53.864 17.4137 53.7769 17.0039 53.5464 16.6863C53.3159 16.3687 52.9266 16.1741 52.3836 16.1023C51.8611 16.0357 51.4206 16.1177 51.0671 16.3533C50.7137 16.5838 50.4524 16.9578 50.2834 17.4649L53.8128 17.9157ZM50.0939 19.2271C50.2219 20.3182 50.8673 20.938 52.0404 21.0865C52.9625 21.2044 53.7616 20.9636 54.4378 20.3694L55.4879 22.0598C54.3302 22.987 53.0291 23.3609 51.5845 23.1765C50.6983 23.0638 49.9402 22.7821 49.3101 22.3313C48.68 21.8805 48.2241 21.3017 47.9373 20.5897C47.6504 19.8776 47.5685 19.0734 47.6812 18.1769C47.7938 17.2908 48.0807 16.5173 48.5366 15.8616C48.9976 15.2059 49.597 14.7192 50.3346 14.4068C51.0723 14.0943 51.8919 13.997 52.7883 14.1148C54.0177 14.2685 54.9295 14.7705 55.5237 15.6157C56.1231 16.4609 56.328 17.6084 56.1435 19.0632L56.0257 19.9852L50.0939 19.2322V19.2271ZM33.8708 17.0654L34.2397 18.1565C34.4394 17.132 35.0541 16.4455 36.0838 16.0972C37.2773 15.6925 38.2557 15.9179 39.019 16.7734C39.1009 16.1997 39.3212 15.713 39.6695 15.3135C40.0179 14.9139 40.484 14.6117 41.0731 14.4119C41.9542 14.1148 42.7174 14.1558 43.3782 14.54C44.0339 14.9242 44.5359 15.6362 44.8894 16.6761L46.7079 22.0496L44.3618 22.8436L42.6713 17.844C42.5125 17.3778 42.2974 17.0449 42.0259 16.8451C41.7544 16.6453 41.4009 16.6197 40.9655 16.7683C40.5199 16.9168 40.2228 17.1832 40.0742 17.5674C39.9257 17.9516 39.9564 18.4536 40.1664 19.0683L41.7442 23.7246L39.398 24.5186L37.7076 19.5191C37.5488 19.0529 37.3337 18.7199 37.0622 18.5202C36.7907 18.3204 36.4372 18.2948 36.0018 18.4433C35.5561 18.5919 35.259 18.8634 35.1105 19.2424C34.9619 19.6266 34.9927 20.1286 35.2027 20.7433L36.7804 25.3997L34.4343 26.1937L31.6016 17.8235L33.8811 17.05L33.8708 17.0654Z" fill="#363880"/>
<path d="M80.2348 34.1698L80.619 34.0162C81.5974 33.632 82.4836 33.6115 83.2725 33.9701C84.0613 34.3235 84.6351 34.9587 84.9937 35.8756C85.3113 36.685 85.383 37.5456 85.1986 38.4574L83.1239 38.2986C83.2213 37.8529 83.1905 37.4329 83.0368 37.0385C82.9088 36.7106 82.7141 36.475 82.4529 36.3367C82.1967 36.1984 81.8945 36.1984 81.5564 36.3315L81.1569 36.4903L81.9406 38.4728L79.8762 39.2872L79.0925 37.3048L72.9352 39.7329L72.0234 37.4124L78.1807 34.9843L77.5865 33.4834L79.6509 32.6689L80.2451 34.1698H80.2348Z" fill="#363880"/>
<path d="M82.8934 41.2346L83.3288 43.6729L74.6307 45.2251L74.1953 42.7868L82.8934 41.2346ZM87.1041 41.7418C87.186 42.1925 87.1041 42.5921 86.8633 42.9456C86.6225 43.299 86.2896 43.509 85.8593 43.5859C85.429 43.6627 85.0448 43.5756 84.6965 43.3297C84.3481 43.0839 84.1381 42.7355 84.0562 42.2847C83.9742 41.8237 84.0562 41.4139 84.2918 41.0656C84.5326 40.7121 84.8655 40.5021 85.2958 40.4253C85.7364 40.3484 86.1257 40.4304 86.4689 40.6763C86.8121 40.9222 87.0221 41.2807 87.1041 41.7418Z" fill="#363880"/>
<path d="M83.6406 47.5956L85.8074 47.652L85.7459 50.1415L83.5791 50.0852L83.5176 52.6106L81.2996 52.5542L81.3611 50.0288L78.2312 49.952C77.7855 49.9417 77.4423 50.0544 77.2016 50.2849C76.9608 50.5206 76.8327 50.8382 76.8225 51.2377C76.8122 51.6629 76.9352 52.0932 77.1862 52.5388L75.3318 53.0921C74.835 52.252 74.5993 51.3965 74.6249 50.5103C74.6505 49.5729 74.9477 48.8199 75.5163 48.2564C76.0849 47.6929 76.8635 47.4214 77.847 47.4471L81.4225 47.5393L81.4686 45.8027L83.6867 45.8591L83.6406 47.5956Z" fill="#363880"/>
<path d="M44.1254 65.5662C40.4321 64.5775 37.2971 62.4056 35.0893 59.5267C32.8815 56.6479 31.5957 53.0621 31.5957 49.2356C31.5957 44.569 33.4859 40.3378 36.5492 37.2796C39.6073 34.2215 43.8385 32.3262 48.5051 32.3262C51.5223 32.3262 54.4268 33.1304 56.9573 34.5954C59.4827 36.0554 61.6342 38.171 63.1453 40.7834L61.9569 41.4647C60.5687 39.0623 58.5965 37.1208 56.2709 35.7787C53.9504 34.4418 51.2815 33.699 48.5051 33.699C44.2176 33.699 40.3296 35.4355 37.5225 38.2478C34.7102 41.0601 32.9737 44.9429 32.9737 49.2305C32.9737 52.7497 34.1519 56.0434 36.1855 58.6866C38.214 61.3299 41.0929 63.3225 44.4891 64.2343L44.1356 65.5611L44.1254 65.5662Z" fill="#363880"/>
</svg>